<svg xmlns="http://www.w3.org/2000/svg" xmlns:xlink="http://www.w3.org/1999/xlink" contentStyleType="text/css" height="780px" preserveAspectRatio="none" style="width:3090px;height:780px;background:#FFFFFF;" version="1.1" viewBox="0 0 3090 780" width="3090px" zoomAndPan="magnify"><defs/><g><!--class Camera--><g id="elem_Camera"><rect codeLine="1" fill="#F1F1F1" height="278.8359" id="Camera" rx="2.5" ry="2.5" style="stroke:#181818;stroke-width:0.5;" width="644.502" x="7" y="7"/><ellipse cx="299.127" cy="23" fill="#ADD1B2" rx="11" ry="11" style="stroke:#181818;stroke-width:1.0;"/><path d="M302.1001,28.6431 Q301.519,28.9419 300.8799,29.0913 Q300.2407,29.2407 299.5352,29.2407 Q297.0283,29.2407 295.7085,27.5889 Q294.3887,25.937 294.3887,22.8159 Q294.3887,19.6865 295.7085,18.0347 Q297.0283,16.3828 299.5352,16.3828 Q300.2407,16.3828 300.8882,16.5322 Q301.5356,16.6816 302.1001,16.9805 L302.1001,19.7031 Q301.4692,19.1221 300.8757,18.8523 Q300.2822,18.5825 299.6514,18.5825 Q298.3066,18.5825 297.6218,19.6492 Q296.937,20.7158 296.937,22.8159 Q296.937,24.9077 297.6218,25.9744 Q298.3066,27.041 299.6514,27.041 Q300.2822,27.041 300.8757,26.7712 Q301.4692,26.5015 302.1001,25.9204 Z " fill="#000000"/><text fill="#000000" font-family="sans-serif" font-size="14" lengthAdjust="spacing" textLength="51.748" x="319.627" y="28.291">Camera</text><line style="stroke:#181818;stroke-width:0.5;" x1="8" x2="650.502" y1="39" y2="39"/><rect fill="none" height="6" style="stroke:#C82930;stroke-width:1.0;" width="6" x="15" y="49.7441"/><text fill="#000000" font-family="sans-serif" font-size="14" lengthAdjust="spacing" textLength="155.4971" x="27" y="56.5352">Vec4f observerPosition</text><rect fill="none" height="6" style="stroke:#C82930;stroke-width:1.0;" width="6" x="15" y="66.2324"/><text fill="#000000" font-family="sans-serif" font-size="14" lengthAdjust="spacing" textLength="140.9707" x="27" y="73.0234">Vec4f screenPosition</text><rect fill="none" height="6" style="stroke:#C82930;stroke-width:1.0;" width="6" x="15" y="82.7207"/><text fill="#000000" font-family="sans-serif" font-size="14" lengthAdjust="spacing" textLength="86.8779" x="27" y="89.5117">Vec4f screen</text><rect fill="none" height="6" style="stroke:#C82930;stroke-width:1.0;" width="6" x="15" y="99.209"/><text fill="#000000" font-family="sans-serif" font-size="14" lengthAdjust="spacing" textLength="44.0713" x="27" y="106">int dpi</text><ellipse cx="18" cy="118.6973" fill="none" rx="3" ry="3" style="stroke:#038048;stroke-width:1.0;"/><text fill="#000000" font-family="sans-serif" font-size="14" lengthAdjust="spacing" textLength="73.8555" x="27" y="122.4883">Mat matrix</text><line style="stroke:#181818;stroke-width:0.5;" x1="8" x2="650.502" y1="129.4414" y2="129.4414"/><ellipse cx="18" cy="143.1855" fill="#84BE84" rx="3" ry="3" style="stroke:#038048;stroke-width:1.0;"/><text fill="#000000" font-family="sans-serif" font-size="14" lengthAdjust="spacing" textLength="60.8535" x="27" y="146.9766">Camera()</text><ellipse cx="18" cy="159.6738" fill="#84BE84" rx="3" ry="3" style="stroke:#038048;stroke-width:1.0;"/><text fill="#000000" font-family="sans-serif" font-size="14" lengthAdjust="spacing" textLength="618.502" x="27" y="163.4648">Camera(const Vec4f&amp; observerPosition, const Vec4f&amp; P, const Vec4f&amp; screen, const int dpi)</text><ellipse cx="18" cy="176.1621" fill="#84BE84" rx="3" ry="3" style="stroke:#038048;stroke-width:1.0;"/><text fill="#000000" font-family="sans-serif" font-size="14" lengthAdjust="spacing" textLength="194.4277" x="27" y="179.9531">Camera(Json::Value&amp; screen)</text><ellipse cx="18" cy="192.6504" fill="#84BE84" rx="3" ry="3" style="stroke:#038048;stroke-width:1.0;"/><text fill="#000000" font-family="sans-serif" font-size="14" lengthAdjust="spacing" textLength="287.6631" x="27" y="196.4414">Camera&amp; operator=(const Camera&amp; other)</text><ellipse cx="18" cy="209.1387" fill="#84BE84" rx="3" ry="3" style="stroke:#038048;stroke-width:1.0;"/><text fill="#000000" font-family="sans-serif" font-size="14" lengthAdjust="spacing" textLength="256.1631" x="27" y="212.9297">Camera&amp; operator=(Camera&amp;&amp; other)</text><ellipse cx="18" cy="225.627" fill="#84BE84" rx="3" ry="3" style="stroke:#038048;stroke-width:1.0;"/><text fill="#000000" font-family="sans-serif" font-size="14" lengthAdjust="spacing" textLength="246.7568" x="27" y="229.418">void capture(const string&amp; filename)</text><ellipse cx="18" cy="242.1152" fill="#84BE84" rx="3" ry="3" style="stroke:#038048;stroke-width:1.0;"/><text fill="#000000" font-family="sans-serif" font-size="14" lengthAdjust="spacing" textLength="127.5176" x="27" y="245.9063">Vec4f getPosition()</text><ellipse cx="18" cy="258.6035" fill="#84BE84" rx="3" ry="3" style="stroke:#038048;stroke-width:1.0;"/><text fill="#000000" font-family="sans-serif" font-size="14" lengthAdjust="spacing" textLength="134.5518" x="27" y="262.3945">Vec4f getObserver()</text><ellipse cx="18" cy="275.0918" fill="#84BE84" rx="3" ry="3" style="stroke:#038048;stroke-width:1.0;"/><text fill="#000000" font-family="sans-serif" font-size="14" lengthAdjust="spacing" textLength="76.6172" x="27" y="278.8828">int getDpi()</text></g><!--class World--><g id="elem_World"><rect codeLine="18" fill="#F1F1F1" height="245.8594" id="World" rx="2.5" ry="2.5" style="stroke:#181818;stroke-width:0.5;" width="520.7852" x="686.86" y="23.49"/><ellipse cx="923.421" cy="39.49" fill="#ADD1B2" rx="11" ry="11" style="stroke:#181818;stroke-width:1.0;"/><path d="M926.3942,45.1331 Q925.8131,45.4319 925.174,45.5813 Q924.5348,45.7307 923.8292,45.7307 Q921.3224,45.7307 920.0026,44.0789 Q918.6828,42.427 918.6828,39.3059 Q918.6828,36.1765 920.0026,34.5247 Q921.3224,32.8728 923.8292,32.8728 Q924.5348,32.8728 925.1823,33.0222 Q925.8297,33.1716 926.3942,33.4705 L926.3942,36.1931 Q925.7633,35.6121 925.1698,35.3423 Q924.5763,35.0725 923.9454,35.0725 Q922.6007,35.0725 921.9159,36.1392 Q921.2311,37.2058 921.2311,39.3059 Q921.2311,41.3977 921.9159,42.4644 Q922.6007,43.531 923.9454,43.531 Q924.5763,43.531 925.1698,43.2612 Q925.7633,42.9915 926.3942,42.4104 Z " fill="#000000"/><text fill="#000000" font-family="sans-serif" font-size="14" lengthAdjust="spacing" textLength="39.1631" x="943.921" y="44.781">World</text><line style="stroke:#181818;stroke-width:0.5;" x1="687.86" x2="1206.6452" y1="55.49" y2="55.49"/><rect fill="none" height="6" style="stroke:#C82930;stroke-width:1.0;" width="6" x="694.86" y="66.2341"/><text fill="#000000" font-family="sans-serif" font-size="14" lengthAdjust="spacing" textLength="194.0586" x="706.86" y="73.0252">std::vector&lt;Light*&gt; lightList</text><rect fill="none" height="6" style="stroke:#C82930;stroke-width:1.0;" width="6" x="694.86" y="82.7224"/><text fill="#000000" font-family="sans-serif" font-size="14" lengthAdjust="spacing" textLength="215.1748" x="706.86" y="89.5134">std::vector&lt;Object*&gt; objectList</text><ellipse cx="697.86" cy="102.2107" fill="none" rx="3" ry="3" style="stroke:#038048;stroke-width:1.0;"/><text fill="#000000" font-family="sans-serif" font-size="14" lengthAdjust="spacing" textLength="105.4102" x="706.86" y="106.0017">Camera camera</text><line style="stroke:#181818;stroke-width:0.5;" x1="687.86" x2="1206.6452" y1="112.9548" y2="112.9548"/><ellipse cx="697.86" cy="126.699" fill="#84BE84" rx="3" ry="3" style="stroke:#038048;stroke-width:1.0;"/><text fill="#000000" font-family="sans-serif" font-size="14" lengthAdjust="spacing" textLength="48.2686" x="706.86" y="130.49">World()</text><ellipse cx="697.86" cy="143.1873" fill="#84BE84" rx="3" ry="3" style="stroke:#038048;stroke-width:1.0;"/><text fill="#000000" font-family="sans-serif" font-size="14" lengthAdjust="spacing" textLength="249.0605" x="706.86" y="146.9783">void readFile(const string&amp; filename)</text><ellipse cx="697.86" cy="159.6755" fill="#84BE84" rx="3" ry="3" style="stroke:#038048;stroke-width:1.0;"/><text fill="#000000" font-family="sans-serif" font-size="14" lengthAdjust="spacing" textLength="278.4209" x="706.86" y="163.4666">void createImage(const string&amp; filename)</text><ellipse cx="697.86" cy="176.1638" fill="#84BE84" rx="3" ry="3" style="stroke:#038048;stroke-width:1.0;"/><text fill="#000000" font-family="sans-serif" font-size="14" lengthAdjust="spacing" textLength="261.8643" x="706.86" y="179.9548">void readObjects(Json::Value&amp; objects)</text><ellipse cx="697.86" cy="192.6521" fill="#84BE84" rx="3" ry="3" style="stroke:#038048;stroke-width:1.0;"/><text fill="#000000" font-family="sans-serif" font-size="14" lengthAdjust="spacing" textLength="354.8057" x="706.86" y="196.4431">void setupObjects(Json::Value&amp; object, Mat&amp; matrix)</text><ellipse cx="697.86" cy="209.1404" fill="#84BE84" rx="3" ry="3" style="stroke:#038048;stroke-width:1.0;"/><text fill="#000000" font-family="sans-serif" font-size="14" lengthAdjust="spacing" textLength="441.8135" x="706.86" y="212.9314">void calcMatrix(int startRow, int endRow, int startCol, int endCol)</text><ellipse cx="697.86" cy="225.6287" fill="#84BE84" rx="3" ry="3" style="stroke:#038048;stroke-width:1.0;"/><text fill="#000000" font-family="sans-serif" font-size="14" lengthAdjust="spacing" textLength="245.6084" x="706.86" y="229.4197">void processMatrix(int numThreads)</text><ellipse cx="697.86" cy="242.117" fill="#84BE84" rx="3" ry="3" style="stroke:#038048;stroke-width:1.0;"/><text fill="#000000" font-family="sans-serif" font-size="14" lengthAdjust="spacing" textLength="473.334" x="706.86" y="245.908">void hit(Ray&amp; ray, Object* startingObject, intersectionInfo* closestHit)</text><ellipse cx="697.86" cy="258.6052" fill="#84BE84" rx="3" ry="3" style="stroke:#038048;stroke-width:1.0;"/><text fill="#000000" font-family="sans-serif" font-size="14" lengthAdjust="spacing" textLength="494.7852" x="706.86" y="262.3963">Vec3f mixLight(intersectionInfo* info, int currentBounce, int maxBounce)</text></g><!--class Light--><g id="elem_Light"><rect codeLine="33" fill="#F1F1F1" height="113.9531" id="Light" rx="2.5" ry="2.5" style="stroke:#181818;stroke-width:0.5;" width="366.1289" x="1366.19" y="502.48"/><ellipse cx="1527.9214" cy="518.48" fill="#ADD1B2" rx="11" ry="11" style="stroke:#181818;stroke-width:1.0;"/><path d="M1530.8946,524.1231 Q1530.3135,524.4219 1529.6744,524.5713 Q1529.0352,524.7207 1528.3296,524.7207 Q1525.8228,524.7207 1524.503,523.0689 Q1523.1832,521.417 1523.1832,518.2959 Q1523.1832,515.1665 1524.503,513.5147 Q1525.8228,511.8628 1528.3296,511.8628 Q1529.0352,511.8628 1529.6827,512.0122 Q1530.3301,512.1616 1530.8946,512.4605 L1530.8946,515.1831 Q1530.2637,514.6021 1529.6702,514.3323 Q1529.0767,514.0625 1528.4459,514.0625 Q1527.1011,514.0625 1526.4163,515.1292 Q1525.7315,516.1958 1525.7315,518.2959 Q1525.7315,520.3877 1526.4163,521.4544 Q1527.1011,522.521 1528.4459,522.521 Q1529.0767,522.521 1529.6702,522.2512 Q1530.2637,521.9815 1530.8946,521.4004 Z " fill="#000000"/><text fill="#000000" font-family="sans-serif" font-size="14" lengthAdjust="spacing" textLength="34.166" x="1548.4214" y="523.771">Light</text><line style="stroke:#181818;stroke-width:0.5;" x1="1367.19" x2="1731.3189" y1="534.48" y2="534.48"/><ellipse cx="1377.19" cy="548.2241" fill="none" rx="3" ry="3" style="stroke:#038048;stroke-width:1.0;"/><text fill="#000000" font-family="sans-serif" font-size="14" lengthAdjust="spacing" textLength="102.9834" x="1386.19" y="552.0152">bool isAmbient</text><ellipse cx="1377.19" cy="564.7124" fill="none" rx="3" ry="3" style="stroke:#038048;stroke-width:1.0;"/><text fill="#000000" font-family="sans-serif" font-size="14" lengthAdjust="spacing" textLength="100.748" x="1386.19" y="568.5034">Vec3f intensity</text><line style="stroke:#181818;stroke-width:0.5;" x1="1367.19" x2="1731.3189" y1="575.4566" y2="575.4566"/><ellipse cx="1377.19" cy="589.2007" fill="#84BE84" rx="3" ry="3" style="stroke:#038048;stroke-width:1.0;"/><text fill="#000000" font-family="sans-serif" font-size="14" lengthAdjust="spacing" textLength="43.2715" x="1386.19" y="592.9917">Light()</text><ellipse cx="1377.19" cy="605.689" fill="#84BE84" rx="3" ry="3" style="stroke:#038048;stroke-width:1.0;"/><text fill="#000000" font-family="sans-serif" font-size="14" lengthAdjust="spacing" textLength="340.1289" x="1386.19" y="609.48">virtual Vec3f lightValue(intersectionInfo* info) = 0</text></g><!--class Ambient--><g id="elem_Ambient"><rect codeLine="40" fill="#F1F1F1" height="97.4648" id="Ambient" rx="2.5" ry="2.5" style="stroke:#181818;stroke-width:0.5;" width="290.1338" x="1242.18" y="97.69"/><ellipse cx="1354.3406" cy="113.69" fill="#ADD1B2" rx="11" ry="11" style="stroke:#181818;stroke-width:1.0;"/><path d="M1357.3138,119.3331 Q1356.7327,119.6319 1356.0936,119.7813 Q1355.4544,119.9307 1354.7488,119.9307 Q1352.242,119.9307 1350.9222,118.2789 Q1349.6024,116.627 1349.6024,113.5059 Q1349.6024,110.3765 1350.9222,108.7247 Q1352.242,107.0728 1354.7488,107.0728 Q1355.4544,107.0728 1356.1019,107.2222 Q1356.7493,107.3716 1357.3138,107.6705 L1357.3138,110.3931 Q1356.6829,109.8121 1356.0894,109.5423 Q1355.4959,109.2725 1354.8651,109.2725 Q1353.5203,109.2725 1352.8355,110.3392 Q1352.1507,111.4058 1352.1507,113.5059 Q1352.1507,115.5977 1352.8355,116.6644 Q1353.5203,117.731 1354.8651,117.731 Q1355.4959,117.731 1356.0894,117.4612 Q1356.6829,117.1915 1357.3138,116.6104 Z " fill="#000000"/><text fill="#000000" font-family="sans-serif" font-size="14" lengthAdjust="spacing" textLength="57.3125" x="1374.8406" y="118.981">Ambient</text><line style="stroke:#181818;stroke-width:0.5;" x1="1243.18" x2="1531.3138" y1="129.69" y2="129.69"/><line style="stroke:#181818;stroke-width:0.5;" x1="1243.18" x2="1531.3138" y1="137.69" y2="137.69"/><ellipse cx="1253.18" cy="151.4341" fill="#84BE84" rx="3" ry="3" style="stroke:#038048;stroke-width:1.0;"/><text fill="#000000" font-family="sans-serif" font-size="14" lengthAdjust="spacing" textLength="191.1396" x="1262.18" y="155.2252">Ambient(Json::Value&amp; input)</text><ellipse cx="1253.18" cy="167.9224" fill="#84BE84" rx="3" ry="3" style="stroke:#038048;stroke-width:1.0;"/><text fill="#000000" font-family="sans-serif" font-size="14" lengthAdjust="spacing" textLength="66.418" x="1262.18" y="171.7134">Ambient()</text><ellipse cx="1253.18" cy="184.4107" fill="#84BE84" rx="3" ry="3" style="stroke:#038048;stroke-width:1.0;"/><text fill="#000000" font-family="sans-serif" font-size="14" lengthAdjust="spacing" textLength="264.1338" x="1262.18" y="188.2017">Vec3f lightValue(intersectionInfo* info)</text></g><!--class Source--><g id="elem_Source"><rect codeLine="46" fill="#F1F1F1" height="113.9531" id="Source" rx="2.5" ry="2.5" style="stroke:#181818;stroke-width:0.5;" width="290.1338" x="1567.18" y="89.44"/><ellipse cx="1685.2332" cy="105.44" fill="#ADD1B2" rx="11" ry="11" style="stroke:#181818;stroke-width:1.0;"/><path d="M1688.2064,111.0831 Q1687.6253,111.3819 1686.9862,111.5313 Q1686.347,111.6807 1685.6414,111.6807 Q1683.1346,111.6807 1681.8148,110.0289 Q1680.4949,108.377 1680.4949,105.2559 Q1680.4949,102.1265 1681.8148,100.4747 Q1683.1346,98.8228 1685.6414,98.8228 Q1686.347,98.8228 1686.9945,98.9722 Q1687.6419,99.1216 1688.2064,99.4205 L1688.2064,102.1431 Q1687.5755,101.5621 1686.982,101.2923 Q1686.3885,101.0225 1685.7576,101.0225 Q1684.4129,101.0225 1683.7281,102.0892 Q1683.0433,103.1558 1683.0433,105.2559 Q1683.0433,107.3477 1683.7281,108.4144 Q1684.4129,109.481 1685.7576,109.481 Q1686.3885,109.481 1686.982,109.2112 Q1687.5755,108.9415 1688.2064,108.3604 Z " fill="#000000"/><text fill="#000000" font-family="sans-serif" font-size="14" lengthAdjust="spacing" textLength="45.5273" x="1705.7332" y="110.731">Source</text><line style="stroke:#181818;stroke-width:0.5;" x1="1568.18" x2="1856.3138" y1="121.44" y2="121.44"/><rect fill="none" height="6" style="stroke:#C82930;stroke-width:1.0;" width="6" x="1575.18" y="132.1841"/><text fill="#000000" font-family="sans-serif" font-size="14" lengthAdjust="spacing" textLength="97.7197" x="1587.18" y="138.9752">Vec4f position</text><line style="stroke:#181818;stroke-width:0.5;" x1="1568.18" x2="1856.3138" y1="145.9283" y2="145.9283"/><ellipse cx="1578.18" cy="159.6724" fill="#84BE84" rx="3" ry="3" style="stroke:#038048;stroke-width:1.0;"/><text fill="#000000" font-family="sans-serif" font-size="14" lengthAdjust="spacing" textLength="179.3545" x="1587.18" y="163.4634">Source(Json::Value&amp; input)</text><ellipse cx="1578.18" cy="176.1607" fill="#84BE84" rx="3" ry="3" style="stroke:#038048;stroke-width:1.0;"/><text fill="#000000" font-family="sans-serif" font-size="14" lengthAdjust="spacing" textLength="264.1338" x="1587.18" y="179.9517">Vec3f lightValue(intersectionInfo* info)</text><ellipse cx="1578.18" cy="192.649" fill="#84BE84" rx="3" ry="3" style="stroke:#038048;stroke-width:1.0;"/><text fill="#000000" font-family="sans-serif" font-size="14" lengthAdjust="spacing" textLength="127.5176" x="1587.18" y="196.44">Vec4f getPosition()</text></g><!--class intersectionInfo--><g id="elem_intersectionInfo"><rect codeLine="53" fill="#F1F1F1" height="146.9297" id="intersectionInfo" rx="2.5" ry="2.5" style="stroke:#181818;stroke-width:0.5;" width="138.6475" x="259.93" y="485.99"/><ellipse cx="274.93" cy="501.99" fill="#F1F1F1" rx="11" ry="11" style="stroke:#181818;stroke-width:1.0;"/><path d="M274.4134,502.553 Q272.5623,501.8474 271.9066,501.0713 Q271.2508,500.2952 271.2508,498.9837 Q271.2508,497.2986 272.3299,496.3357 Q273.409,495.3728 275.2933,495.3728 Q276.1483,495.3728 277.0032,495.5679 Q277.8582,495.7629 278.6966,496.1448 L278.6966,498.5354 Q277.908,497.9793 277.0946,497.6887 Q276.2811,497.3982 275.4842,497.3982 Q274.596,497.3982 274.1229,497.7551 Q273.6497,498.1121 273.6497,498.7761 Q273.6497,499.2908 273.9942,499.627 Q274.3387,499.9631 275.4344,500.3699 L276.4886,500.7683 Q277.9827,501.3162 278.6883,502.221 Q279.3939,503.1257 279.3939,504.5037 Q279.3939,506.3796 278.2857,507.3052 Q277.1776,508.2307 274.9363,508.2307 Q274.015,508.2307 273.0894,508.0108 Q272.1639,507.7908 271.3006,507.3591 L271.3006,504.8274 Q272.2801,505.5247 273.1973,505.865 Q274.1146,506.2053 275.0111,506.2053 Q275.9158,506.2053 276.4139,505.7944 Q276.9119,505.3836 276.9119,504.6448 Q276.9119,504.0886 276.5799,503.6694 Q276.2479,503.2503 275.617,503.0095 Z " fill="#000000"/><text fill="#000000" font-family="sans-serif" font-size="14" lengthAdjust="spacing" textLength="106.6475" x="288.93" y="507.281">intersectionInfo</text><line style="stroke:#181818;stroke-width:0.5;" x1="260.93" x2="397.5775" y1="517.99" y2="517.99"/><ellipse cx="270.93" cy="531.7341" fill="none" rx="3" ry="3" style="stroke:#038048;stroke-width:1.0;"/><text fill="#000000" font-family="sans-serif" font-size="14" lengthAdjust="spacing" textLength="75.7285" x="279.93" y="535.5252">bool didHit</text><ellipse cx="270.93" cy="548.2224" fill="none" rx="3" ry="3" style="stroke:#038048;stroke-width:1.0;"/><text fill="#000000" font-family="sans-serif" font-size="14" lengthAdjust="spacing" textLength="40.4277" x="279.93" y="552.0134">float t</text><ellipse cx="270.93" cy="564.7107" fill="none" rx="3" ry="3" style="stroke:#038048;stroke-width:1.0;"/><text fill="#000000" font-family="sans-serif" font-size="14" lengthAdjust="spacing" textLength="97.7197" x="279.93" y="568.5017">Vec4f position</text><ellipse cx="270.93" cy="581.199" fill="none" rx="3" ry="3" style="stroke:#038048;stroke-width:1.0;"/><text fill="#000000" font-family="sans-serif" font-size="14" lengthAdjust="spacing" textLength="90.4189" x="279.93" y="584.99">Vec4f normal</text><ellipse cx="270.93" cy="597.6873" fill="none" rx="3" ry="3" style="stroke:#038048;stroke-width:1.0;"/><text fill="#000000" font-family="sans-serif" font-size="14" lengthAdjust="spacing" textLength="61.1406" x="279.93" y="601.4783">Vec4f dir</text><ellipse cx="270.93" cy="614.1755" fill="none" rx="3" ry="3" style="stroke:#038048;stroke-width:1.0;"/><text fill="#000000" font-family="sans-serif" font-size="14" lengthAdjust="spacing" textLength="97.207" x="279.93" y="617.9666">Object* object</text><line style="stroke:#181818;stroke-width:0.5;" x1="260.93" x2="397.5775" y1="624.9197" y2="624.9197"/></g><!--class Object--><g id="elem_Object"><rect codeLine="63" fill="#F1F1F1" height="427.2305" id="Object" rx="2.5" ry="2.5" style="stroke:#181818;stroke-width:0.5;" width="654.1064" x="2160.2" y="345.84"/><ellipse cx="2460.9266" cy="361.84" fill="#ADD1B2" rx="11" ry="11" style="stroke:#181818;stroke-width:1.0;"/><path d="M2463.8997,367.4831 Q2463.3187,367.7819 2462.6795,367.9313 Q2462.0403,368.0807 2461.3348,368.0807 Q2458.8279,368.0807 2457.5081,366.4289 Q2456.1883,364.777 2456.1883,361.6559 Q2456.1883,358.5265 2457.5081,356.8747 Q2458.8279,355.2228 2461.3348,355.2228 Q2462.0403,355.2228 2462.6878,355.3722 Q2463.3353,355.5216 2463.8997,355.8205 L2463.8997,358.5431 Q2463.2688,357.9621 2462.6753,357.6923 Q2462.0818,357.4225 2461.451,357.4225 Q2460.1063,357.4225 2459.4214,358.4892 Q2458.7366,359.5558 2458.7366,361.6559 Q2458.7366,363.7477 2459.4214,364.8144 Q2460.1063,365.881 2461.451,365.881 Q2462.0818,365.881 2462.6753,365.6112 Q2463.2688,365.3415 2463.8997,364.7604 Z " fill="#000000"/><text fill="#000000" font-family="sans-serif" font-size="14" lengthAdjust="spacing" textLength="44.1533" x="2481.4266" y="367.131">Object</text><line style="stroke:#181818;stroke-width:0.5;" x1="2161.2" x2="2813.3064" y1="377.84" y2="377.84"/><rect fill="none" height="6" style="stroke:#C82930;stroke-width:1.0;" width="6" x="2168.2" y="388.5841"/><text fill="#000000" font-family="sans-serif" font-size="14" lengthAdjust="spacing" textLength="97.7197" x="2180.2" y="395.3752">Vec4f position</text><rect fill="none" height="6" style="stroke:#C82930;stroke-width:1.0;" width="6" x="2168.2" y="405.0724"/><text fill="#000000" font-family="sans-serif" font-size="14" lengthAdjust="spacing" textLength="97.9385" x="2180.2" y="411.8634">Vec3f ambient</text><rect fill="none" height="6" style="stroke:#C82930;stroke-width:1.0;" width="6" x="2168.2" y="421.5607"/><text fill="#000000" font-family="sans-serif" font-size="14" lengthAdjust="spacing" textLength="89.332" x="2180.2" y="428.3517">Vec3f diffuse</text><rect fill="none" height="6" style="stroke:#C82930;stroke-width:1.0;" width="6" x="2168.2" y="438.049"/><text fill="#000000" font-family="sans-serif" font-size="14" lengthAdjust="spacing" textLength="99.668" x="2180.2" y="444.84">Vec3f specular</text><rect fill="none" height="6" style="stroke:#C82930;stroke-width:1.0;" width="6" x="2168.2" y="454.5373"/><text fill="#000000" font-family="sans-serif" font-size="14" lengthAdjust="spacing" textLength="102.0947" x="2180.2" y="461.3283">Vec3f reflected</text><rect fill="none" height="6" style="stroke:#C82930;stroke-width:1.0;" width="6" x="2168.2" y="471.0255"/><text fill="#000000" font-family="sans-serif" font-size="14" lengthAdjust="spacing" textLength="103.708" x="2180.2" y="477.8166">Vec3f refracted</text><rect fill="none" height="6" style="stroke:#C82930;stroke-width:1.0;" width="6" x="2168.2" y="487.5138"/><text fill="#000000" font-family="sans-serif" font-size="14" lengthAdjust="spacing" textLength="98.5605" x="2180.2" y="494.3048">float shininess</text><rect fill="none" height="6" style="stroke:#C82930;stroke-width:1.0;" width="6" x="2168.2" y="504.0021"/><text fill="#000000" font-family="sans-serif" font-size="14" lengthAdjust="spacing" textLength="60.334" x="2180.2" y="510.7931">int index</text><ellipse cx="2171.2" cy="523.4904" fill="none" rx="3" ry="3" style="stroke:#038048;stroke-width:1.0;"/><text fill="#000000" font-family="sans-serif" font-size="14" lengthAdjust="spacing" textLength="174.2139" x="2180.2" y="527.2814">Mat transformationMatrix</text><line style="stroke:#181818;stroke-width:0.5;" x1="2161.2" x2="2813.3064" y1="534.2345" y2="534.2345"/><ellipse cx="2171.2" cy="547.9787" fill="#84BE84" rx="3" ry="3" style="stroke:#038048;stroke-width:1.0;"/><text fill="#000000" font-family="sans-serif" font-size="14" lengthAdjust="spacing" textLength="241.2266" x="2180.2" y="551.7697">void setPosition(Json::Value&amp; input)</text><ellipse cx="2171.2" cy="564.467" fill="#84BE84" rx="3" ry="3" style="stroke:#038048;stroke-width:1.0;"/><text fill="#000000" font-family="sans-serif" font-size="14" lengthAdjust="spacing" textLength="165.6416" x="2180.2" y="568.258">void setDefaultPosition()</text><ellipse cx="2171.2" cy="580.9552" fill="#84BE84" rx="3" ry="3" style="stroke:#038048;stroke-width:1.0;"/><text fill="#000000" font-family="sans-serif" font-size="14" lengthAdjust="spacing" textLength="222.4688" x="2180.2" y="584.7463">void setColor(Json::Value&amp; color)</text><ellipse cx="2171.2" cy="597.4435" fill="#84BE84" rx="3" ry="3" style="stroke:#038048;stroke-width:1.0;"/><text fill="#000000" font-family="sans-serif" font-size="14" lengthAdjust="spacing" textLength="148.21" x="2180.2" y="601.2345">void setDefaultColor()</text><ellipse cx="2171.2" cy="613.9318" fill="#84BE84" rx="3" ry="3" style="stroke:#038048;stroke-width:1.0;"/><text fill="#000000" font-family="sans-serif" font-size="14" lengthAdjust="spacing" textLength="231.8682" x="2180.2" y="617.7228">void setIndex(Json::Value&amp; Jindex)</text><ellipse cx="2171.2" cy="630.4201" fill="#84BE84" rx="3" ry="3" style="stroke:#038048;stroke-width:1.0;"/><text fill="#000000" font-family="sans-serif" font-size="14" lengthAdjust="spacing" textLength="127.5176" x="2180.2" y="634.2111">Vec4f getPosition()</text><ellipse cx="2171.2" cy="646.9084" fill="#84BE84" rx="3" ry="3" style="stroke:#038048;stroke-width:1.0;"/><text fill="#000000" font-family="sans-serif" font-size="14" lengthAdjust="spacing" textLength="130.7373" x="2180.2" y="650.6994">Vec3f getAmbient()</text><ellipse cx="2171.2" cy="663.3966" fill="#84BE84" rx="3" ry="3" style="stroke:#038048;stroke-width:1.0;"/><text fill="#000000" font-family="sans-serif" font-size="14" lengthAdjust="spacing" textLength="121.8779" x="2180.2" y="667.1877">Vec3f getDiffuse()</text><ellipse cx="2171.2" cy="679.8849" fill="#84BE84" rx="3" ry="3" style="stroke:#038048;stroke-width:1.0;"/><text fill="#000000" font-family="sans-serif" font-size="14" lengthAdjust="spacing" textLength="130.9424" x="2180.2" y="683.6759">Vec3f getSpecular()</text><ellipse cx="2171.2" cy="696.3732" fill="#84BE84" rx="3" ry="3" style="stroke:#038048;stroke-width:1.0;"/><text fill="#000000" font-family="sans-serif" font-size="14" lengthAdjust="spacing" textLength="136.0898" x="2180.2" y="700.1642">Vec3f getReflected()</text><ellipse cx="2171.2" cy="712.8615" fill="#84BE84" rx="3" ry="3" style="stroke:#038048;stroke-width:1.0;"/><text fill="#000000" font-family="sans-serif" font-size="14" lengthAdjust="spacing" textLength="137.7031" x="2180.2" y="716.6525">Vec3f getRefracted()</text><ellipse cx="2171.2" cy="729.3498" fill="#84BE84" rx="3" ry="3" style="stroke:#038048;stroke-width:1.0;"/><text fill="#000000" font-family="sans-serif" font-size="14" lengthAdjust="spacing" textLength="129.835" x="2180.2" y="733.1408">float getShininess()</text><ellipse cx="2171.2" cy="745.838" fill="#84BE84" rx="3" ry="3" style="stroke:#038048;stroke-width:1.0;"/><text fill="#000000" font-family="sans-serif" font-size="14" lengthAdjust="spacing" textLength="91.1914" x="2180.2" y="749.6291">int getIndex()</text><ellipse cx="2171.2" cy="762.3263" fill="#84BE84" rx="3" ry="3" style="stroke:#038048;stroke-width:1.0;"/><text fill="#000000" font-family="sans-serif" font-size="14" lengthAdjust="spacing" textLength="628.1064" x="2180.2" y="766.1173">virtual void intersection(const struct Ray&amp; ray, World* scene, intersectionInfo* closesHit) = 0</text></g><!--class Sphere--><g id="elem_Sphere"><rect codeLine="89" fill="#F1F1F1" height="97.4648" id="Sphere" rx="2.5" ry="2.5" style="stroke:#181818;stroke-width:0.5;" width="578.1113" x="1892.2" y="97.69"/><ellipse cx="2153.8216" cy="113.69" fill="#ADD1B2" rx="11" ry="11" style="stroke:#181818;stroke-width:1.0;"/><path d="M2156.7947,119.3331 Q2156.2137,119.6319 2155.5745,119.7813 Q2154.9354,119.9307 2154.2298,119.9307 Q2151.7229,119.9307 2150.4031,118.2789 Q2149.0833,116.627 2149.0833,113.5059 Q2149.0833,110.3765 2150.4031,108.7247 Q2151.7229,107.0728 2154.2298,107.0728 Q2154.9354,107.0728 2155.5828,107.2222 Q2156.2303,107.3716 2156.7947,107.6705 L2156.7947,110.3931 Q2156.1639,109.8121 2155.5704,109.5423 Q2154.9769,109.2725 2154.346,109.2725 Q2153.0013,109.2725 2152.3165,110.3392 Q2151.6316,111.4058 2151.6316,113.5059 Q2151.6316,115.5977 2152.3165,116.6644 Q2153.0013,117.731 2154.346,117.731 Q2154.9769,117.731 2155.5704,117.4612 Q2156.1639,117.1915 2156.7947,116.6104 Z " fill="#000000"/><text fill="#000000" font-family="sans-serif" font-size="14" lengthAdjust="spacing" textLength="46.3682" x="2174.3216" y="118.981">Sphere</text><line style="stroke:#181818;stroke-width:0.5;" x1="1893.2" x2="2469.3113" y1="129.69" y2="129.69"/><rect fill="none" height="6" style="stroke:#C82930;stroke-width:1.0;" width="6" x="1900.2" y="140.4341"/><text fill="#000000" font-family="sans-serif" font-size="14" lengthAdjust="spacing" textLength="77.335" x="1912.2" y="147.2252">float radius</text><line style="stroke:#181818;stroke-width:0.5;" x1="1893.2" x2="2469.3113" y1="154.1783" y2="154.1783"/><ellipse cx="1903.2" cy="167.9224" fill="#84BE84" rx="3" ry="3" style="stroke:#038048;stroke-width:1.0;"/><text fill="#000000" font-family="sans-serif" font-size="14" lengthAdjust="spacing" textLength="272.6719" x="1912.2" y="171.7134">Sphere(Json::Value&amp; input, Mat&amp; matrix)</text><ellipse cx="1903.2" cy="184.4107" fill="#84BE84" rx="3" ry="3" style="stroke:#038048;stroke-width:1.0;"/><text fill="#000000" font-family="sans-serif" font-size="14" lengthAdjust="spacing" textLength="552.1113" x="1912.2" y="188.2017">void intersection(const struct Ray&amp; ray, World* scene, intersectionInfo* closesHit)</text></g><!--class Halfspace--><g id="elem_Halfspace"><rect codeLine="97" fill="#F1F1F1" height="130.4414" id="Halfspace" rx="2.5" ry="2.5" style="stroke:#181818;stroke-width:0.5;" width="578.1113" x="2505.2" y="81.2"/><ellipse cx="2757.0735" cy="97.2" fill="#ADD1B2" rx="11" ry="11" style="stroke:#181818;stroke-width:1.0;"/><path d="M2760.0467,102.8431 Q2759.4656,103.1419 2758.8265,103.2913 Q2758.1873,103.4407 2757.4817,103.4407 Q2754.9749,103.4407 2753.6551,101.7889 Q2752.3353,100.137 2752.3353,97.0159 Q2752.3353,93.8865 2753.6551,92.2347 Q2754.9749,90.5828 2757.4817,90.5828 Q2758.1873,90.5828 2758.8348,90.7322 Q2759.4822,90.8816 2760.0467,91.1805 L2760.0467,93.9031 Q2759.4158,93.3221 2758.8223,93.0523 Q2758.2288,92.7825 2757.5979,92.7825 Q2756.2532,92.7825 2755.5684,93.8492 Q2754.8836,94.9158 2754.8836,97.0159 Q2754.8836,99.1077 2755.5684,100.1744 Q2756.2532,101.241 2757.5979,101.241 Q2758.2288,101.241 2758.8223,100.9712 Q2759.4158,100.7015 2760.0467,100.1204 Z " fill="#000000"/><text fill="#000000" font-family="sans-serif" font-size="14" lengthAdjust="spacing" textLength="65.8643" x="2777.5735" y="102.491">Halfspace</text><line style="stroke:#181818;stroke-width:0.5;" x1="2506.2" x2="3082.3113" y1="113.2" y2="113.2"/><rect fill="none" height="6" style="stroke:#C82930;stroke-width:1.0;" width="6" x="2513.2" y="123.9441"/><text fill="#000000" font-family="sans-serif" font-size="14" lengthAdjust="spacing" textLength="90.4189" x="2525.2" y="130.7352">Vec4f normal</text><line style="stroke:#181818;stroke-width:0.5;" x1="2506.2" x2="3082.3113" y1="137.6883" y2="137.6883"/><ellipse cx="2516.2" cy="151.4324" fill="#84BE84" rx="3" ry="3" style="stroke:#038048;stroke-width:1.0;"/><text fill="#000000" font-family="sans-serif" font-size="14" lengthAdjust="spacing" textLength="292.168" x="2525.2" y="155.2234">Halfspace(Json::Value&amp; input, Mat&amp; matrix)</text><ellipse cx="2516.2" cy="167.9207" fill="#84BE84" rx="3" ry="3" style="stroke:#038048;stroke-width:1.0;"/><text fill="#000000" font-family="sans-serif" font-size="14" lengthAdjust="spacing" textLength="552.1113" x="2525.2" y="171.7117">void intersection(const struct Ray&amp; ray, World* scene, intersectionInfo* closesHit)</text><ellipse cx="2516.2" cy="184.409" fill="#84BE84" rx="3" ry="3" style="stroke:#038048;stroke-width:1.0;"/><text fill="#000000" font-family="sans-serif" font-size="14" lengthAdjust="spacing" textLength="236.6533" x="2525.2" y="188.2">void setNormal(Json::Value&amp; input)</text><ellipse cx="2516.2" cy="200.8973" fill="#84BE84" rx="3" ry="3" style="stroke:#038048;stroke-width:1.0;"/><text fill="#000000" font-family="sans-serif" font-size="14" lengthAdjust="spacing" textLength="161.0684" x="2525.2" y="204.6883">void setDefaultNormal()</text></g><!--class Ray--><g id="elem_Ray"><rect codeLine="107" fill="#F1F1F1" height="80.9766" id="Ray" rx="2.5" ry="2.5" style="stroke:#181818;stroke-width:0.5;" width="123.7197" x="433.39" y="518.97"/><ellipse cx="479.0506" cy="534.97" fill="#F1F1F1" rx="11" ry="11" style="stroke:#181818;stroke-width:1.0;"/><path d="M478.534,535.533 Q476.683,534.8274 476.0272,534.0513 Q475.3714,533.2752 475.3714,531.9637 Q475.3714,530.2786 476.4505,529.3157 Q477.5296,528.3528 479.4139,528.3528 Q480.2689,528.3528 481.1239,528.5479 Q481.9789,528.7429 482.8172,529.1248 L482.8172,531.5154 Q482.0287,530.9593 481.2152,530.6687 Q480.4017,530.3782 479.6048,530.3782 Q478.7167,530.3782 478.2435,530.7351 Q477.7704,531.0921 477.7704,531.7561 Q477.7704,532.2708 478.1149,532.607 Q478.4593,532.9431 479.555,533.3499 L480.6092,533.7483 Q482.1034,534.2962 482.8089,535.201 Q483.5145,536.1057 483.5145,537.4837 Q483.5145,539.3596 482.4064,540.2852 Q481.2982,541.2107 479.057,541.2107 Q478.1356,541.2107 477.2101,540.9908 Q476.2845,540.7708 475.4213,540.3391 L475.4213,537.8074 Q476.4007,538.5047 477.318,538.845 Q478.2352,539.1853 479.1317,539.1853 Q480.0365,539.1853 480.5345,538.7744 Q481.0326,538.3636 481.0326,537.6248 Q481.0326,537.0686 480.7005,536.6494 Q480.3685,536.2303 479.7377,535.9895 Z " fill="#000000"/><text fill="#000000" font-family="sans-serif" font-size="14" lengthAdjust="spacing" textLength="23.8984" x="499.5506" y="540.261">Ray</text><line style="stroke:#181818;stroke-width:0.5;" x1="434.39" x2="556.1097" y1="550.97" y2="550.97"/><ellipse cx="444.39" cy="564.7141" fill="none" rx="3" ry="3" style="stroke:#038048;stroke-width:1.0;"/><text fill="#000000" font-family="sans-serif" font-size="14" lengthAdjust="spacing" textLength="61.1406" x="453.39" y="568.5052">Vec4f dir</text><ellipse cx="444.39" cy="581.2024" fill="none" rx="3" ry="3" style="stroke:#038048;stroke-width:1.0;"/><text fill="#000000" font-family="sans-serif" font-size="14" lengthAdjust="spacing" textLength="97.7197" x="453.39" y="584.9934">Vec4f position</text><line style="stroke:#181818;stroke-width:0.5;" x1="434.39" x2="556.1097" y1="591.9466" y2="591.9466"/></g><!--link Sphere to Object--><g id="link_Sphere_Object"><path codeLine="95" d="M2216.95,195.38 C2245.17,233.28 2283.1169,284.2474 2325.1969,340.7674 " fill="none" id="Sphere-to-Object" style="stroke:#181818;stroke-width:1.0;"/><polygon fill="#181818" points="2328.78,345.58,2326.6138,335.9723,2325.7941,341.5695,2320.1969,340.7498,2328.78,345.58" style="stroke:#181818;stroke-width:1.0;"/></g><!--link Halfspace to Object--><g id="link_Halfspace_Object"><path codeLine="105" d="M2745.94,212.1 C2718.59,248.72 2686.241,292.0433 2649.881,340.7133 " fill="none" id="Halfspace-to-Object" style="stroke:#181818;stroke-width:1.0;"/><polygon fill="#181818" points="2646.29,345.52,2654.881,340.7039,2649.2825,341.5144,2648.472,335.9159,2646.29,345.52" style="stroke:#181818;stroke-width:1.0;"/></g><!--link Ambient to Light--><g id="link_Ambient_Light"><path codeLine="112" d="M1406.15,195.38 C1436.28,271.83 1492.86,415.3879 1524.91,496.7079 " fill="none" id="Ambient-to-Light" style="stroke:#181818;stroke-width:1.0;"/><polygon fill="#181818" points="1527.11,502.29,1527.5314,492.4502,1525.2766,497.6382,1520.0886,495.3835,1527.11,502.29" style="stroke:#181818;stroke-width:1.0;"/></g><!--link Source to Light--><g id="link_Source_Light"><path codeLine="113" d="M1689.93,203.71 C1658.8,282.2 1604.9017,418.1325 1573.7817,496.6125 " fill="none" id="Source-to-Light" style="stroke:#181818;stroke-width:1.0;"/><polygon fill="#181818" points="1571.57,502.19,1578.6058,495.2982,1573.4131,497.5421,1571.1692,492.3493,1571.57,502.19" style="stroke:#181818;stroke-width:1.0;"/></g><!--SRC=[nLLBRzim3BxdL-WKf6q23EXEmLfWQp4qHRiMxT2T5PbEDCYI8SbTYc7_VTJBiUmapM70SeYjZpJvyI6I2MeCkQ8LQ4f-ZmZ-PkG5sCUIgAK1_GhwKHbkkPAPq30D80-88iIb9KND_UcCt5DBAcertqGWE9wSv4UcfB71sdX0OqeoyMFl7BmdCBhlsRyrIixdBrGqa3x8DT1hZG-hz4Kaq-9s3Ng_SaHwUg-A5uJHsZOQeZs3IP2hCIcv08aV9TMGmXNO5Eva87c82MabBaZ4hskEq9_HYFcQ_b1Q56r9ZItcyrTWoFBJ7L-jxUab4UvvnutTeVEm_8algAJyIwkLWiPmt2DYtjSa2rS3BRvYSE_46rA3oXOM5LqTfUvC1tucBsNWQZ9b0xQf3sXFNLEEOrVs2YROlOSdBiF6KcsVrA-fppV8edttaYibMWc-PvPghHWOqp4cc-hxsiMHarrpEtcYRsEYwTkKn1e4-vYEXqWO3O0s-8hjiP2bEYLCA0F6td3RwPRpabHyuuiz6Nx2yJyGPetM8EqNrKW60Qhe9Xmx_UGDnNuw8qkb1E7cSxNa-6tcrFcIsBnl4GqCsZYvjWqLKTUteA_77eedv89ys9A8_beQyPmNbikwQHEHDFB4lEztw_DPDPf1RpZMtSbt5dKEq3ZQxVunW8JmMZJC3XeWhqh12so4Y9H2uSorcTaUzm1AfIigCgZWEfvJ9uOhuvZ4t0J1eTpCOkYqqoa9AtXPDWOopDJ06a5r1cee1Vg1eezgsa53h6RD9PTutJeRYCi2DfqTP3MLfdGHEvxttOsKXaQR-FqrJQhNKD9632TsakCuK3gtmnoqnqvGxmiNBeJSoAqFwwZDSUubk- -2MnsX44F1Swp6KFAKIh9J5EhIYa9bdBrKdFxo2k7rXuGFljljs_NWxi5sLFe5X9EIWOJz0zBDntoUFDUufhTtE_3KjE2DIJVRQ-peWlsBuzyITcGZpTdiCjwunF-6YjBKT32UijlSAltFAF9k_kRv7N-tehvFnZRcRZwstDffs9zYlUc4fj8wSORycXh5OTy2Vm40]--></g></svg>